# xmcd CD database file
#
# Track frame offsets:
#	150
#	37898
#	78606
#	116288
#	152016
#	189959
#	231514
#	271780
#
# Disc length: 4095 seconds
#
# Revision: 5
# Processed by: cddbd v1.5.2PL0 Copyright (c) Steve Scherf et al.
# Submitted via: CDex 1.70beta2
#
DISCID=590ffd08
DTITLE=未知 - 未知
DYEAR=1900
DGENRE=
TTITLE0=トラッ? 1
TTITLE1=トラッ? 2
TTITLE2=トラック 3
TTITLE3=トラック 4
TTITLE4=トラッ? 5
TTITLE5=トラック 6
TTITLE6=トラッ? 7
TTITLE7=トラッ? 8
EXTD=
EXTT0=
EXTT1=
EXTT2=
EXTT3=
EXTT4=
EXTT5=
EXTT6=
EXTT7=
PLAYORDER=
